<svg data-v-423bf9ae="" xmlns="http://www.w3.org/2000/svg" viewBox="0 0 522.091517825606 60" class="font"><!----><!----><!----><g data-v-423bf9ae="" id="5a07029d-bffd-4c19-8579-4cf75d941a00" fill="black" transform="matrix(6.535947495140209,0,0,6.535947495140209,-0.5882294366559222,-35.68627261911783)"><path d="M1.29 9.60L1.61 6.97L0.09 6.72L0.24 6.19L0.24 6.19Q1.91 5.89 3.60 5.89L3.60 5.89L4.45 5.90L4.33 6.43L2.97 6.62L2.64 9.30L2.64 9.30Q2.64 9.37 2.63 9.47L2.63 9.47L2.63 9.47Q2.62 9.50 2.60 9.67L2.60 9.67L2.60 9.67Q2.58 9.84 2.56 9.97L2.56 9.97L2.56 9.97Q2.54 10.12 2.53 10.32L2.53 10.32L2.51 10.53L2.51 10.53Q2.50 10.66 2.50 11.07L2.50 11.07L2.50 11.07Q2.50 11.44 2.52 11.63L2.52 11.63L2.52 11.63Q2.56 11.92 2.62 12.15L2.62 12.15L2.62 12.15Q2.78 12.71 3.26 13.11L3.26 13.11L3.26 13.11Q3.78 13.56 4.48 13.56L4.48 13.56L4.48 13.56Q5.20 13.56 5.68 13.23L5.68 13.23L5.68 13.23Q6.15 12.92 6.41 12.41L6.41 12.41L6.41 12.41Q6.67 11.90 6.83 10.75L6.83 10.75L7.33 6.80L5.80 6.74L5.92 6.21L5.92 6.21Q7.35 5.90 8.98 5.90L8.98 5.90L8.98 5.90Q9.14 5.90 9.75 5.93L9.75 5.93L9.61 6.45L8.20 6.90L7.62 10.86L7.62 10.86Q7.38 12.44 6.90 13.18L6.90 13.18L6.90 13.18Q6.64 13.58 6.36 13.82L6.36 13.82L6.36 13.82Q6.09 14.03 5.64 14.27L5.64 14.27L5.64 14.27Q4.87 14.63 4.06 14.63L4.06 14.63L3.99 14.63L3.99 14.63Q2.67 14.57 1.95 13.83L1.95 13.83L1.95 13.83Q1.12 13.00 1.11 11.49L1.11 11.49L1.11 11.49Q1.11 10.91 1.29 9.60L1.29 9.60ZM12.30 12.04L12.30 12.04L12.30 12.04Q12.26 13.47 12.00 14.01L12.00 14.01L12.00 14.01Q11.74 14.59 11.14 14.59L11.14 14.59L11.14 14.59Q11.09 14.59 10.85 14.56L10.85 14.56L10.75 14.38L11.31 11.74L11.46 10.16L11.46 10.16Q11.48 9.87 11.48 9.64L11.48 9.64L11.48 9.64Q11.48 9.39 11.42 9.26L11.42 9.26L11.42 9.26Q11.36 9.14 11.23 9.15L11.23 9.15L11.23 9.15Q11.11 9.15 10.81 9.49L10.81 9.49L10.81 9.49Q10.51 9.83 10.29 10.21L10.29 10.21L9.97 9.95L9.97 9.95Q10.23 9.22 10.83 8.65L10.83 8.65L10.83 8.65Q11.41 8.09 12.02 8.09L12.02 8.09L12.02 8.09Q12.56 8.09 12.54 8.80L12.54 8.80L12.54 8.80Q12.54 9.13 12.46 9.52L12.46 9.52L12.46 9.52Q12.39 9.81 12.33 10.11L12.33 10.11L12.33 10.11Q12.25 10.47 12.26 10.48L12.26 10.48L12.34 10.52L12.34 10.52Q12.65 9.58 13.25 8.92L13.25 8.92L13.25 8.92Q13.86 8.26 14.40 8.26L14.40 8.26L14.40 8.26Q14.95 8.26 15.22 8.54L15.22 8.54L15.22 8.54Q15.48 8.82 15.48 9.27L15.48 9.27L15.48 9.27Q15.48 9.71 15.42 10.19L15.42 10.19L15.12 12.67L15.12 12.67Q15.09 12.91 15.09 13.16L15.09 13.16L15.09 13.16Q15.09 13.57 15.32 13.57L15.32 13.57L15.32 13.57Q15.54 13.57 15.88 13.33L15.88 13.33L15.88 13.33Q16.21 13.10 16.41 12.71L16.41 12.71L16.71 12.92L16.71 12.92Q16.09 14.56 14.63 14.56L14.63 14.56L14.63 14.56Q13.96 14.56 13.96 13.71L13.96 13.71L13.96 13.71Q13.96 13.59 14.10 12.38L14.10 12.38L14.26 11.06L14.26 11.06Q14.35 10.34 14.36 9.96L14.36 9.96L14.36 9.96Q14.36 9.71 14.27 9.58L14.27 9.58L14.27 9.58Q14.17 9.46 13.98 9.47L13.98 9.47L13.98 9.47Q12.91 9.47 12.30 12.04ZM20.49 14.40L16.93 14.40L17.08 13.88L18.51 13.51L19.39 7.14L17.87 7.03L18.00 6.50L18.00 6.50Q20.64 5.79 21.84 5.78L21.84 5.78L21.84 5.78Q23.04 5.78 23.78 6.30L23.78 6.30L23.78 6.30Q24.49 6.85 24.51 7.66L24.51 7.66L24.51 7.66Q24.51 8.10 24.21 8.62L24.21 8.62L24.21 8.62Q23.61 9.58 22.54 9.84L22.54 9.84L22.54 9.88L22.54 9.88Q22.81 9.93 23.17 10.06L23.17 10.06L23.17 10.06Q23.56 10.21 23.82 10.41L23.82 10.41L23.82 10.41Q24.20 10.70 24.41 11.11L24.41 11.11L24.41 11.11Q24.62 11.50 24.62 11.81L24.62 11.81L24.62 11.81Q24.61 12.00 24.61 12.15L24.61 12.15L24.61 12.15Q24.53 12.82 24.08 13.30L24.08 13.30L24.08 13.30Q23.60 13.79 22.95 14.03L22.95 14.03L22.95 14.03Q22.33 14.25 21.81 14.33L21.81 14.33L21.81 14.33Q21.35 14.40 20.49 14.40L20.49 14.40ZM20.21 10.33L19.78 13.71L19.78 13.71Q20.30 13.77 20.90 13.77L20.90 13.77L21.12 13.77L21.12 13.77Q22.08 13.75 22.61 13.41L22.61 13.41L22.61 13.41Q23.30 12.93 23.30 12.22L23.30 12.22L23.30 12.22Q23.30 12.07 23.28 12.03L23.28 12.03L23.28 12.03Q23.21 11.49 22.78 11.07L22.78 11.07L22.78 11.07Q22.35 10.65 21.72 10.49L21.72 10.49L21.72 10.49Q21.11 10.33 20.21 10.33L20.21 10.33ZM20.70 6.36L20.28 9.76L20.94 9.79L20.94 9.79Q21.66 9.79 22.07 9.66L22.07 9.66L22.07 9.66Q22.48 9.53 22.84 9.15L22.84 9.15L22.84 9.15Q23.18 8.79 23.22 8.26L23.22 8.26L23.22 8.26Q23.22 8.21 23.24 8.19L23.24 8.19L23.24 8.11L23.24 8.11Q23.24 7.35 22.71 6.88L22.71 6.88L22.71 6.88Q22.19 6.41 21.40 6.36L21.40 6.36L21.40 6.36Q21.36 6.34 21.19 6.34L21.19 6.34L21.19 6.34Q21.05 6.34 20.70 6.36L20.70 6.36ZM27.36 10.51L27.17 12.66L27.17 12.66Q27.13 12.91 27.13 13.16L27.13 13.16L27.13 13.16Q27.13 13.56 27.36 13.56L27.36 13.56L27.36 13.56Q27.60 13.56 27.92 13.32L27.92 13.32L27.92 13.32Q28.26 13.08 28.46 12.71L28.46 12.71L28.75 12.91L28.75 12.91Q28.13 14.55 26.78 14.55L26.78 14.55L26.78 14.55Q26.35 14.55 26.17 14.29L26.17 14.29L26.17 14.29Q26.00 14.04 26.00 13.66L26.00 13.66L26.00 13.66Q26.00 13.24 26.09 12.37L26.09 12.37L26.34 10.22L26.34 10.22Q26.46 9.19 26.11 9.28L26.11 9.28L26.11 9.28Q25.81 9.35 25.17 10.30L25.17 10.30L24.84 10.08L24.84 10.08Q24.96 9.78 25.15 9.46L25.15 9.46L25.15 9.46Q25.34 9.15 25.60 8.86L25.60 8.86L25.60 8.86Q25.85 8.57 26.19 8.38L26.19 8.38L26.19 8.38Q26.52 8.20 26.85 8.20L26.85 8.20L26.85 8.20Q27.00 8.20 27.10 8.24L27.10 8.24L27.10 8.24Q27.21 8.28 27.28 8.36L27.28 8.36L27.28 8.36Q27.34 8.44 27.39 8.53L27.39 8.53L27.39 8.53Q27.44 8.62 27.46 8.77L27.46 8.77L27.46 8.77Q27.47 8.92 27.48 9.05L27.48 9.05L27.48 9.05Q27.48 9.17 27.47 9.38L27.47 9.38L27.47 9.38Q27.45 9.58 27.44 9.73L27.44 9.73L27.44 9.73Q27.43 9.87 27.40 10.11L27.40 10.11L27.40 10.11Q27.37 10.36 27.36 10.51L27.36 10.51ZM27.60 5.66L27.60 5.66L27.60 5.66Q27.77 5.86 27.77 6.17L27.77 6.17L27.77 6.17Q27.77 6.49 27.55 6.75L27.55 6.75L27.55 6.75Q27.32 7.01 27.03 7.01L27.03 7.01L27.03 7.01Q26.74 7.01 26.58 6.82L26.58 6.82L26.58 6.82Q26.41 6.63 26.41 6.33L26.41 6.33L26.41 6.33Q26.41 6.02 26.64 5.74L26.64 5.74L26.64 5.74Q26.87 5.46 27.15 5.46L27.15 5.46L27.15 5.46Q27.43 5.46 27.60 5.66ZM30.02 12.43L30.02 12.43L30.02 12.43Q30.02 13.04 30.11 13.26L30.11 13.26L30.11 13.26Q30.20 13.49 30.46 13.49L30.46 13.49L30.46 13.49Q30.95 13.49 31.60 12.45L31.60 12.45L31.60 12.45Q32.25 11.41 32.51 9.88L32.51 9.88L32.51 9.88Q32.41 9.60 32.11 9.37L32.11 9.37L32.11 9.37Q31.81 9.13 31.48 9.13L31.48 9.13L31.48 9.13Q31.16 9.13 30.85 9.46L30.85 9.46L30.85 9.46Q30.55 9.78 30.37 10.33L30.37 10.33L30.37 10.33Q30.02 11.39 30.02 12.43ZM32.85 8.18L32.92 8.12L33.74 8.37L33.24 11.04L33.04 12.67L33.04 12.67Q32.99 13.04 32.99 13.25L32.99 13.25L32.99 13.25Q32.99 13.60 33.29 13.60L33.29 13.60L33.29 13.60Q33.48 13.60 33.78 13.26L33.78 13.26L33.78 13.26Q34.11 12.91 34.34 12.52L34.34 12.52L34.62 12.76L34.62 12.76Q34.23 13.71 33.79 14.16L33.79 14.16L33.79 14.16Q33.34 14.61 32.62 14.61L32.62 14.61L32.62 14.61Q32.29 14.61 32.09 14.36L32.09 14.36L32.09 14.36Q31.92 14.12 31.92 13.62L31.92 13.62L31.92 13.62Q31.92 13.13 32.16 12.43L32.16 12.43L32.07 12.43L32.07 12.43Q31.72 13.29 31.13 13.92L31.13 13.92L31.13 13.92Q30.55 14.54 29.98 14.54L29.98 14.54L29.98 14.54Q29.42 14.54 29.19 14.12L29.19 14.12L29.19 14.12Q28.96 13.70 28.96 12.86L28.96 12.86L28.96 12.86Q28.96 12.01 29.35 10.94L29.35 10.94L29.35 10.94Q29.75 9.86 30.40 9.07L30.40 9.07L30.40 9.07Q31.05 8.28 31.71 8.28L31.71 8.28L31.71 8.28Q32.35 8.28 32.69 8.79L32.69 8.79L32.75 8.79L32.85 8.18ZM36.89 12.08L36.89 12.08L36.89 12.08Q36.00 11.35 35.75 10.94L35.75 10.94L35.75 10.94Q35.49 10.51 35.49 10.16L35.49 10.16L35.49 10.16Q35.49 9.37 36.09 8.82L36.09 8.82L36.09 8.82Q36.70 8.26 37.50 8.26L37.50 8.26L37.50 8.26Q38.07 8.26 38.42 8.50L38.42 8.50L38.42 8.50Q38.78 8.73 38.78 9.10L38.78 9.10L38.78 9.10Q38.78 9.69 38.12 9.97L38.12 9.97L38.12 9.97Q37.86 9.43 37.56 9.16L37.56 9.16L37.56 9.16Q37.26 8.89 37.01 8.89L37.01 8.89L37.01 8.89Q36.77 8.89 36.57 9.08L36.57 9.08L36.57 9.08Q36.35 9.29 36.35 9.57L36.35 9.57L36.35 9.57Q36.35 10.03 37.17 10.73L37.17 10.73L37.36 10.89L37.36 10.89Q37.55 11.05 37.56 11.07L37.56 11.07L37.56 11.07Q37.58 11.09 37.75 11.24L37.75 11.24L37.75 11.24Q37.90 11.38 37.94 11.42L37.94 11.42L37.94 11.42Q37.96 11.45 38.02 11.51L38.02 11.51L38.02 11.51Q38.08 11.57 38.12 11.61L38.12 11.61L38.12 11.61Q38.68 12.22 38.66 12.76L38.66 12.76L38.66 12.76Q38.65 13.31 38.33 13.73L38.33 13.73L38.33 13.73Q38.00 14.14 37.45 14.39L37.45 14.39L37.45 14.39Q36.90 14.64 36.29 14.64L36.29 14.64L36.29 14.64Q35.68 14.64 35.25 14.36L35.25 14.36L35.25 14.36Q34.84 14.08 34.84 13.72L34.84 13.72L34.84 13.72Q34.84 13.36 35.06 13.10L35.06 13.10L35.06 13.10Q35.29 12.84 35.62 12.80L35.62 12.80L35.62 12.80Q35.77 13.26 36.09 13.64L36.09 13.64L36.09 13.64Q36.40 14.01 36.78 14.01L36.78 14.01L36.78 14.01Q37.17 14.01 37.41 13.80L37.41 13.80L37.41 13.80Q37.66 13.60 37.66 13.23L37.66 13.23L37.66 13.23Q37.64 12.72 36.89 12.08ZM41.96 9.63L41.96 9.63L41.96 9.63Q41.96 9.31 41.82 9.15L41.82 9.15L41.82 9.15Q41.69 8.99 41.41 9.00L41.41 9.00L41.41 9.00Q40.26 9.00 40.10 11.57L40.10 11.57L40.10 11.57Q41.96 10.88 41.96 9.63ZM42.70 8.59L42.70 8.59L42.70 8.59Q43.00 8.91 43.00 9.43L43.00 9.43L43.00 9.43Q43.00 10.42 41.99 11.14L41.99 11.14L41.99 11.14Q41.17 11.72 40.10 12.07L40.10 12.07L40.10 12.07Q40.14 13.69 41.21 13.69L41.21 13.69L41.21 13.69Q42 13.69 42.62 12.71L42.62 12.71L42.87 12.93L42.87 12.93Q42.64 13.61 42.03 14.12L42.03 14.12L42.03 14.12Q41.43 14.61 40.65 14.61L40.65 14.61L40.65 14.61Q39.88 14.61 39.44 14.01L39.44 14.01L39.44 14.01Q39.01 13.43 39.01 12.39L39.01 12.39L39.01 12.39Q39.01 11.37 39.40 10.43L39.40 10.43L39.40 10.43Q39.81 9.47 40.47 8.87L40.47 8.87L40.47 8.87Q41.14 8.26 41.86 8.26L41.86 8.26L41.86 8.26Q42.39 8.26 42.70 8.59ZM44.69 13.65L44.69 13.65L44.69 13.65Q45.58 13.65 46.27 11.68L46.27 11.68L46.27 11.68Q46.59 10.76 46.70 9.76L46.70 9.76L46.70 9.76Q46.38 9.10 45.79 9.10L45.79 9.10L45.79 9.10Q45.39 9.10 45.09 9.43L45.09 9.43L45.09 9.43Q44.78 9.75 44.62 10.27L44.62 10.27L44.62 10.27Q44.46 10.79 44.39 11.30L44.39 11.30L44.39 11.30Q44.31 11.82 44.31 12.31L44.31 12.31L44.31 12.31Q44.31 12.67 44.32 12.86L44.32 12.86L44.32 12.86Q44.32 13.04 44.36 13.26L44.36 13.26L44.36 13.26Q44.39 13.47 44.47 13.56L44.47 13.56L44.47 13.56Q44.56 13.65 44.69 13.65ZM48.03 5.72L48.16 5.89L47.32 12.46L47.32 12.46Q47.24 12.92 47.25 13.13L47.25 13.13L47.25 13.13Q47.26 13.38 47.33 13.47L47.33 13.47L47.33 13.47Q47.39 13.56 47.56 13.56L47.56 13.56L47.56 13.56Q47.71 13.56 48.04 13.23L48.04 13.23L48.04 13.23Q48.35 12.93 48.56 12.55L48.56 12.55L48.84 12.74L48.84 12.74Q48.30 14.57 46.81 14.56L46.81 14.56L46.81 14.56Q46.24 14.56 46.24 13.73L46.24 13.73L46.24 13.73Q46.24 13.21 46.42 12.63L46.42 12.63L46.33 12.60L46.33 12.60Q46.19 12.97 46.02 13.29L46.02 13.29L46.02 13.29Q45.86 13.61 45.62 13.92L45.62 13.92L45.62 13.92Q45.38 14.23 45.06 14.40L45.06 14.40L45.06 14.40Q44.73 14.57 44.37 14.57L44.37 14.57L44.37 14.57Q43.22 14.57 43.22 12.86L43.22 12.86L43.22 12.86Q43.22 12.34 43.35 11.73L43.35 11.73L43.35 11.73Q43.49 11.13 43.75 10.53L43.75 10.53L43.75 10.53Q44.02 9.94 44.36 9.45L44.36 9.45L44.36 9.45Q44.71 8.97 45.17 8.67L45.17 8.67L45.17 8.67Q45.64 8.37 46.13 8.37L46.13 8.37L46.13 8.37Q46.66 8.37 46.76 8.58L46.76 8.58L46.86 8.55L47.00 6.59L46.08 6.40L46.15 5.90L48.03 5.72ZM56.31 13.84L56.14 14.40L51.86 14.40L51.99 13.86L53.51 13.51L54.35 6.95L52.81 6.72L52.94 6.20L52.94 6.20Q54.47 5.88 56.11 5.88L56.11 5.88L56.11 5.88Q56.59 5.88 57.18 5.93L57.18 5.93L57.05 6.44L55.69 6.59L54.82 13.67L56.31 13.84ZM59.73 12.04L59.73 12.04L59.73 12.04Q59.69 13.47 59.44 14.01L59.44 14.01L59.44 14.01Q59.17 14.59 58.57 14.59L58.57 14.59L58.57 14.59Q58.52 14.59 58.28 14.56L58.28 14.56L58.19 14.38L58.75 11.74L58.90 10.16L58.90 10.16Q58.92 9.87 58.92 9.64L58.92 9.64L58.92 9.64Q58.92 9.39 58.86 9.26L58.86 9.26L58.86 9.26Q58.80 9.14 58.67 9.15L58.67 9.15L58.67 9.15Q58.54 9.15 58.24 9.49L58.24 9.49L58.24 9.49Q57.94 9.83 57.73 10.21L57.73 10.21L57.40 9.95L57.40 9.95Q57.67 9.22 58.26 8.65L58.26 8.65L58.26 8.65Q58.84 8.09 59.45 8.09L59.45 8.09L59.45 8.09Q59.99 8.09 59.98 8.80L59.98 8.80L59.98 8.80Q59.98 9.13 59.89 9.52L59.89 9.52L59.89 9.52Q59.82 9.81 59.77 10.11L59.77 10.11L59.77 10.11Q59.68 10.47 59.70 10.48L59.70 10.48L59.77 10.52L59.77 10.52Q60.08 9.58 60.69 8.92L60.69 8.92L60.69 8.92Q61.29 8.26 61.84 8.26L61.84 8.26L61.84 8.26Q62.38 8.26 62.65 8.54L62.65 8.54L62.65 8.54Q62.92 8.82 62.92 9.27L62.92 9.27L62.92 9.27Q62.92 9.71 62.86 10.19L62.86 10.19L62.56 12.67L62.56 12.67Q62.52 12.91 62.52 13.16L62.52 13.16L62.52 13.16Q62.52 13.57 62.75 13.57L62.75 13.57L62.75 13.57Q62.98 13.57 63.31 13.33L63.31 13.33L63.31 13.33Q63.64 13.10 63.85 12.71L63.85 12.71L64.14 12.92L64.14 12.92Q63.53 14.56 62.06 14.56L62.06 14.56L62.06 14.56Q61.39 14.56 61.39 13.71L61.39 13.71L61.39 13.71Q61.39 13.59 61.54 12.38L61.54 12.38L61.69 11.06L61.69 11.06Q61.78 10.34 61.80 9.96L61.80 9.96L61.80 9.96Q61.80 9.71 61.70 9.58L61.70 9.58L61.70 9.58Q61.61 9.46 61.41 9.47L61.41 9.47L61.41 9.47Q60.34 9.47 59.73 12.04ZM65.83 13.65L65.83 13.65L65.83 13.65Q66.72 13.65 67.42 11.68L67.42 11.68L67.42 11.68Q67.74 10.76 67.84 9.76L67.84 9.76L67.84 9.76Q67.53 9.10 66.94 9.10L66.94 9.10L66.94 9.10Q66.53 9.10 66.23 9.43L66.23 9.43L66.23 9.43Q65.93 9.75 65.77 10.27L65.77 10.27L65.77 10.27Q65.60 10.79 65.53 11.30L65.53 11.30L65.53 11.30Q65.45 11.82 65.45 12.31L65.45 12.31L65.45 12.31Q65.45 12.67 65.46 12.86L65.46 12.86L65.46 12.86Q65.47 13.04 65.50 13.26L65.50 13.26L65.50 13.26Q65.54 13.47 65.62 13.56L65.62 13.56L65.62 13.56Q65.70 13.65 65.83 13.65ZM69.17 5.72L69.30 5.89L68.46 12.46L68.46 12.46Q68.39 12.92 68.39 13.13L68.39 13.13L68.39 13.13Q68.41 13.38 68.47 13.47L68.47 13.47L68.47 13.47Q68.54 13.56 68.70 13.56L68.70 13.56L68.70 13.56Q68.86 13.56 69.18 13.23L69.18 13.23L69.18 13.23Q69.49 12.93 69.71 12.55L69.71 12.55L69.98 12.74L69.98 12.74Q69.45 14.57 67.96 14.56L67.96 14.56L67.96 14.56Q67.38 14.56 67.38 13.73L67.38 13.73L67.38 13.73Q67.38 13.21 67.56 12.63L67.56 12.63L67.47 12.60L67.47 12.60Q67.33 12.97 67.17 13.29L67.17 13.29L67.17 13.29Q67.00 13.61 66.76 13.92L66.76 13.92L66.76 13.92Q66.52 14.23 66.20 14.40L66.20 14.40L66.20 14.40Q65.88 14.57 65.51 14.57L65.51 14.57L65.51 14.57Q64.36 14.57 64.36 12.86L64.36 12.86L64.36 12.86Q64.36 12.34 64.50 11.73L64.50 11.73L64.50 11.73Q64.63 11.13 64.90 10.53L64.90 10.53L64.90 10.53Q65.16 9.94 65.51 9.45L65.51 9.45L65.51 9.45Q65.85 8.97 66.32 8.67L66.32 8.67L66.32 8.67Q66.78 8.37 67.27 8.37L67.27 8.37L67.27 8.37Q67.81 8.37 67.91 8.58L67.91 8.58L68.00 8.55L68.14 6.59L67.22 6.40L67.29 5.90L69.17 5.72ZM72.71 10.51L72.52 12.66L72.52 12.66Q72.49 12.91 72.49 13.16L72.49 13.16L72.49 13.16Q72.49 13.56 72.72 13.56L72.72 13.56L72.72 13.56Q72.96 13.56 73.28 13.32L73.28 13.32L73.28 13.32Q73.62 13.08 73.81 12.71L73.81 12.71L74.10 12.91L74.10 12.91Q73.49 14.55 72.13 14.55L72.13 14.55L72.13 14.55Q71.71 14.55 71.53 14.29L71.53 14.29L71.53 14.29Q71.36 14.04 71.36 13.66L71.36 13.66L71.36 13.66Q71.36 13.24 71.45 12.37L71.45 12.37L71.70 10.22L71.70 10.22Q71.81 9.19 71.47 9.28L71.47 9.28L71.47 9.28Q71.16 9.35 70.53 10.30L70.53 10.30L70.20 10.08L70.20 10.08Q70.31 9.78 70.51 9.46L70.51 9.46L70.51 9.46Q70.70 9.15 70.95 8.86L70.95 8.86L70.95 8.86Q71.21 8.57 71.54 8.38L71.54 8.38L71.54 8.38Q71.87 8.20 72.21 8.20L72.21 8.20L72.21 8.20Q72.35 8.20 72.46 8.24L72.46 8.24L72.46 8.24Q72.56 8.28 72.63 8.36L72.63 8.36L72.63 8.36Q72.70 8.44 72.75 8.53L72.75 8.53L72.75 8.53Q72.80 8.62 72.81 8.77L72.81 8.77L72.81 8.77Q72.83 8.92 72.83 9.05L72.83 9.05L72.83 9.05Q72.84 9.17 72.82 9.38L72.82 9.38L72.82 9.38Q72.81 9.58 72.80 9.73L72.80 9.73L72.80 9.73Q72.78 9.87 72.75 10.11L72.75 10.11L72.75 10.11Q72.73 10.36 72.71 10.51L72.71 10.51ZM72.96 5.66L72.96 5.66L72.96 5.66Q73.13 5.86 73.13 6.17L73.13 6.17L73.13 6.17Q73.13 6.49 72.91 6.75L72.91 6.75L72.91 6.75Q72.68 7.01 72.39 7.01L72.39 7.01L72.39 7.01Q72.10 7.01 71.93 6.82L71.93 6.82L71.93 6.82Q71.76 6.63 71.76 6.33L71.76 6.33L71.76 6.33Q71.76 6.02 72.00 5.74L72.00 5.74L72.00 5.74Q72.23 5.46 72.50 5.46L72.50 5.46L72.50 5.46Q72.79 5.46 72.96 5.66ZM75.37 12.43L75.37 12.43L75.37 12.43Q75.37 13.04 75.46 13.26L75.46 13.26L75.46 13.26Q75.56 13.49 75.82 13.49L75.82 13.49L75.82 13.49Q76.31 13.49 76.96 12.45L76.96 12.45L76.96 12.45Q77.60 11.41 77.87 9.88L77.87 9.88L77.87 9.88Q77.77 9.60 77.46 9.37L77.46 9.37L77.46 9.37Q77.16 9.13 76.84 9.13L76.84 9.13L76.84 9.13Q76.51 9.13 76.21 9.46L76.21 9.46L76.21 9.46Q75.91 9.78 75.73 10.33L75.73 10.33L75.73 10.33Q75.37 11.39 75.37 12.43ZM78.20 8.18L78.28 8.12L79.09 8.37L78.60 11.04L78.39 12.67L78.39 12.67Q78.35 13.04 78.35 13.25L78.35 13.25L78.35 13.25Q78.35 13.60 78.65 13.60L78.65 13.60L78.65 13.60Q78.83 13.60 79.14 13.26L79.14 13.26L79.14 13.26Q79.47 12.91 79.69 12.52L79.69 12.52L79.97 12.76L79.97 12.76Q79.59 13.71 79.15 14.16L79.15 14.16L79.15 14.16Q78.70 14.61 77.98 14.61L77.98 14.61L77.98 14.61Q77.64 14.61 77.45 14.36L77.45 14.36L77.45 14.36Q77.27 14.12 77.27 13.62L77.27 13.62L77.27 13.62Q77.27 13.13 77.52 12.43L77.52 12.43L77.43 12.43L77.43 12.43Q77.08 13.29 76.49 13.92L76.49 13.92L76.49 13.92Q75.91 14.54 75.34 14.54L75.34 14.54L75.34 14.54Q74.77 14.54 74.55 14.12L74.55 14.12L74.55 14.12Q74.32 13.70 74.32 12.86L74.32 12.86L74.32 12.86Q74.32 12.01 74.71 10.94L74.71 10.94L74.71 10.94Q75.11 9.86 75.76 9.07L75.76 9.07L75.76 9.07Q76.41 8.28 77.06 8.28L77.06 8.28L77.06 8.28Q77.70 8.28 78.05 8.79L78.05 8.79L78.11 8.79L78.20 8.18Z"></path></g><!----><!----></svg>